<svg xmlns="http://www.w3.org/2000/svg" width="38.886" height="38.886" viewBox="0 0 38.886 38.886"><defs><style>.a{fill:#8dc63f;}</style></defs><g transform="translate(23.686 24.246)"><path class="a" d="M1192.2,255.7a3.534,3.534,0,0,0-.243-4.965l-7.374-6.714a3.518,3.518,0,0,0-4.971.243l-.807.892a3.536,3.536,0,0,0,.243,4.966l7.374,6.714a3.521,3.521,0,0,0,4.972-.243Z" transform="translate(-1177.902 -243.108)"/></g><path class="a" d="M1170.431,222.128a14.036,14.036,0,1,1-4.581.776,14.019,14.019,0,0,1,4.581-.776m0,3.806a10.171,10.171,0,0,0-3.339.566h0a10.193,10.193,0,1,0,3.34-.566Z" transform="translate(-1156.417 -222.128)"/></svg>