<svg xmlns="http://www.w3.org/2000/svg" width="35.128" height="31.615" viewBox="0 0 35.128 31.615"><path d="M1164.257,780.375h-24.541v-1.218l22.538-3.005a2.415,2.415,0,0,0,2.07-2.379v-7.49a2.252,2.252,0,0,0-2.242-2.258h-22.366v-1.715a2.753,2.753,0,0,0-2.741-2.76h-4.359a1.757,1.757,0,0,0,0,3.513h3.612v18.065a2.752,2.752,0,0,0,2.74,2.76h25.289a1.756,1.756,0,0,0,0-3.512Zm-14.728-5.059-4.284.572v-9.355h4.284Zm1.993-8.783h4.283v7.946l-4.283.571Zm10.31,7.142-4.034.539v-7.681h4.034Zm-18.58-7.142v9.62l-3.536.472V766.533Z" transform="translate(-1130.872 -759.549)"/><path d="M1144.159,784.222a3.471,3.471,0,1,0,3.447,3.47A3.458,3.458,0,0,0,1144.159,784.222Z" transform="translate(-1130.872 -759.549)"/><path d="M1160.769,784.222a3.471,3.471,0,1,0,3.446,3.47A3.459,3.459,0,0,0,1160.769,784.222Z" transform="translate(-1130.872 -759.549)"/></svg>