<svg xmlns="http://www.w3.org/2000/svg" width="45.042" height="45.405" viewBox="0 0 45.042 45.405"><defs><style>.a{fill:none;stroke:#161615;stroke-linecap:round;stroke-miterlimit:10;stroke-width:2px;}</style></defs><g transform="translate(-1510.466 -543)"><path class="a" d="M125.48,136.687s-.749-14.287-17.974-11.991a9.769,9.769,0,0,1-2.038-.417,16.879,16.879,0,0,0-5.171.073c-5.38.938-10.844,5.8-11.686,11.485a21.767,21.767,0,0,0,.835,9.66c2.372,7.368,8.909,11.479,16.063,13" transform="translate(1423.082 422.633)"/><path class="a" d="M102.245,129.082s.357,4.163,4.342,5.142c0,0,5.821.49,5.331-5.142" transform="translate(1423.381 422.924)"/><line class="a" y2="12.857" transform="translate(1529.972 544)"/><path class="a" d="M98.2,129.082s-10.408,11.51.857,19.714" transform="translate(1423.082 423.118)"/><path class="a" d="M130.694,138.653s-7.1-.367-6.367,6.735C124.327,145.388,130.449,147.1,130.694,138.653Z" transform="translate(1423.786 423.318)"/><path class="a" d="M119.184,140.49s-4.531,7.224.734,9.918C119.918,150.408,124.694,145.51,119.184,140.49Z" transform="translate(1423.621 423.463)"/><path class="a" d="M129.781,152.04s-7.658,3.751-9.788-1.766C119.993,150.274,125.363,146.036,129.781,152.04Z" transform="translate(1423.786 423.65)"/><path class="a" d="M111.7,145.072s-5.748,9.166.932,12.583C112.634,157.655,118.693,151.441,111.7,145.072Z" transform="translate(1423.486 424.01)"/><path class="a" d="M125.147,159.726s-9.716,4.759-12.418-2.241C112.729,157.485,119.542,152.108,125.147,159.726Z" transform="translate(1423.786 424.01)"/><line class="a" x1="5.818" y2="4.63" transform="translate(1529.613 582.37)"/></g></svg>