<svg xmlns="http://www.w3.org/2000/svg" width="30" height="31.564" viewBox="0 0 30 31.564"><defs><style>.a{fill:#8dc63f;}</style></defs><g transform="translate(18.005 20.012)"><path class="a" d="M1189.185,253.044a2.789,2.789,0,0,0-.192-3.918l-5.819-5.3a2.776,2.776,0,0,0-3.922.192l-.637.7a2.79,2.79,0,0,0,.192,3.919l5.819,5.3a2.779,2.779,0,0,0,3.923-.192Z" transform="translate(-1177.902 -243.108)"/></g><path class="a" d="M1167.475,222.128a11.076,11.076,0,1,1-3.615.612,11.063,11.063,0,0,1,3.615-.612m0,3a8.025,8.025,0,0,0-2.635.446h0a8.043,8.043,0,1,0,2.635-.446Z" transform="translate(-1156.417 -222.128)"/></svg>