<svg xmlns="http://www.w3.org/2000/svg" width="43.173" height="42.898" viewBox="0 0 43.173 42.898"><defs><style>.a{fill:none;stroke:#161615;stroke-linecap:round;stroke-miterlimit:10;stroke-width:2px;}</style></defs><g transform="translate(-168.105 -243.791)"><path class="a" d="M1.117,0H17.526a1.117,1.117,0,0,1,1.117,1.117V6.061a0,0,0,0,1,0,0H0a0,0,0,0,1,0,0V1.117A1.117,1.117,0,0,1,1.117,0Z" transform="translate(172.87 244.791)"/><line class="a" y2="3.031" transform="translate(177.095 244.791)"/><line class="a" y2="3.031" transform="translate(182.192 244.791)"/><line class="a" y2="3.031" transform="translate(187.289 244.791)"/><path class="a" d="M172.411,250.852l-3.306,3.214V281.25l3.306,4.163,14.878-.122"/><line class="a" x2="17.602" transform="translate(169.687 277.821)"/><path class="a" d="M169.687,258.23h24.98v-3.7l-2.786-3.061"/><path class="a" d="M177.91,263.995a1.558,1.558,0,0,0-.15.788c-.238,2.6.267,5.66,2.961,6.752a5.8,5.8,0,0,0,2.488.488,3.694,3.694,0,0,0,2.038-.738,3.046,3.046,0,0,0,1.142-1.824c.578-3.1-2.551-4.856-5.084-5.479a7.648,7.648,0,0,0-2.183-.225,2.828,2.828,0,0,0-1.123.158A.342.342,0,0,0,177.91,263.995Z"/><path class="a" d="M178.2,264.138c.153,0,6.734,6.643,6.734,6.643"/><rect class="a" width="19.531" height="22.99" transform="translate(190.748 262.699)"/><rect class="a" width="7.653" height="10.439" transform="translate(196.748 263.036)"/></g></svg>