<svg xmlns="http://www.w3.org/2000/svg" width="44.442" height="39.997" viewBox="0 0 44.442 39.997"><defs><style>.a{fill:#7aac34;}</style></defs><path class="a" d="M1270.236,247.475h-31.048v-1.541l28.515-3.8a3.056,3.056,0,0,0,2.619-3.01v-9.475a2.852,2.852,0,0,0-2.838-2.858h-28.3v-2.17a3.482,3.482,0,0,0-3.468-3.491h-5.515a2.222,2.222,0,0,0,0,4.444h4.57v22.855a3.483,3.483,0,0,0,3.468,3.491h31.994a2.222,2.222,0,0,0,0-4.443Zm-18.633-6.4-5.42.722V229.964h5.42Zm2.522-11.112h5.418v10.053l-5.418.722ZM1267.169,239l-5.1.681v-9.716h5.1Zm-23.506-9.035v12.17l-4.474.6V229.964Z" transform="translate(-1228 -221.128)"/><path class="a" d="M1243.566,249.223a4.391,4.391,0,1,0,4.361,4.391A4.375,4.375,0,0,0,1243.566,249.223Z" transform="translate(-1226.756 -218.008)"/><path class="a" d="M1262.48,249.223a4.391,4.391,0,1,0,4.36,4.391A4.376,4.376,0,0,0,1262.48,249.223Z" transform="translate(-1224.656 -218.008)"/></svg>