<svg xmlns="http://www.w3.org/2000/svg" width="51.561" height="40.25" viewBox="0 0 51.561 40.25"><defs><style>.a,.b{fill:none;stroke:#161615;stroke-miterlimit:10;stroke-width:2px;}.a{stroke-linecap:round;}</style></defs><g transform="translate(-85.056 -211.067)"><path class="a" d="M122.4,233.112c2.108,6.612,10.162,3.042,10.162,3.042l-8.528-6.711-16.772-13.2" transform="translate(2.128 0.538)"/><path class="a" d="M107.265,243.289l24.678-19.77s-6.7-3.323-9.54,2.348" transform="translate(2.128 1.352)"/><path class="b" d="M113.369,219.441l5.4-7.358s-22.743-.761-32.628,18.249c0,0,6.013,17.074,32.628,19.77l-5.628-7.985"/><path class="a" d="M95.755,221.755s7.328,6.567,0,12.512" transform="translate(1.099 1.249)"/><circle class="b" cx="2.074" cy="2.074" r="2.074" transform="translate(91.097 227.186)"/><path class="b" d="M99.1,227.3c.622-.069,4.7-3.646,10.715-1.753l-4.77,5.486L99.1,229.667Z" transform="translate(1.445 1.668)"/></g></svg>