<svg xmlns="http://www.w3.org/2000/svg" width="45.922" height="34.545" viewBox="0 0 45.922 34.545"><defs><style>.a,.b{fill:none;stroke:#161615;stroke-miterlimit:10;stroke-width:2px;}.b{stroke-linecap:round;}</style></defs><g transform="translate(-87.213 -297.493)"><path class="a" d="M90.527,304.672a7.918,7.918,0,0,1,1.624-2.226c1.654-1.713,4.023-4.163,6.606-3.941a17.085,17.085,0,0,1,7.282,2.205c2.519,1.468,4.986,3.2,7.9,3.718,4,.713,8.392-.958,12.078.664a9.067,9.067,0,0,1,3.948,3.65,8.048,8.048,0,0,1,1.351,4.5,8.573,8.573,0,0,1-1.539,4.184,18.375,18.375,0,0,1-9.165,7.075,23.211,23.211,0,0,1-11.869.923c-8.89-1.576-16.586-8.414-18.356-16.771a6.84,6.84,0,0,1,.012-3.64C90.434,304.895,90.478,304.782,90.527,304.672Z" transform="translate(0.031 0)"/><path class="b" d="M90.278,305.622S87.1,312.3,88.812,316.531c0,0,2.371,10.462,16.2,13.575,0,0,13.831,3.363,20.943-3.612a31.566,31.566,0,0,0,5.352-6.6s1.652-4.338-.005-6.777" transform="translate(0 0.122)"/><circle class="a" cx="3.97" cy="3.97" r="3.97" transform="translate(114.152 310.238)"/><path class="b" d="M97.378,309.043c2.475-1.822,4.249-3.421,4.249-3.421" transform="translate(0.748 0.122)"/><line class="b" y1="6.194" x2="7.636" transform="translate(100.46 307.454)"/></g></svg>