<svg xmlns="http://www.w3.org/2000/svg" width="45.805" height="42.531" viewBox="0 0 45.805 42.531"><defs><style>.a,.b{fill:none;stroke:#161615;stroke-linecap:round;stroke-width:2px;}.a{stroke-linejoin:round;}.b{stroke-miterlimit:10;}</style></defs><g transform="translate(-169.959 -156.821)"><path class="a" d="M171.551,168.474l24-10.653s8.694,5.633,9.306,10.653Z"/><path class="b" d="M170.959,168.474v10.531s3.9-.367,3.776,4.286c0,0,.755,3.918-3.776,3.8v5.265H178.9"/><line class="b" y2="11.939" transform="translate(204.857 168.474)"/><circle class="b" cx="2.327" cy="2.327" r="2.327" transform="translate(192.245 173.862)"/><circle class="b" cx="3.551" cy="3.551" r="3.551" transform="translate(178.898 176.066)"/><path class="b" d="M209.673,183.168c2.494.768,4.54,3.859,4.858,7.347,0,0,.979,5.266-2.2,7.837h-25.47s-4.653-.367-5.02-6c-.236-3.608,1.564-7.46,5.02-8.183,4.776-1,9.184,4.632,8.694,8.183"/><path class="b" d="M196.571,183.168s5.347,2.449,5.347,9.8"/><path class="b" d="M202.184,183.168s5.347,2.449,5.347,9.8"/></g></svg>