<svg xmlns="http://www.w3.org/2000/svg" width="20.423" height="33" viewBox="0 0 20.423 33"><defs><style>.a{fill:#c1272d;}</style></defs><path class="a" d="M483.39,401.252c-.515-.776-1.026-1.508-1.5-2.265-.879-1.405-1.772-2.8-2.593-4.243-.925-1.622-1.8-3.272-2.651-4.934a41.307,41.307,0,0,1-1.965-4.536,28.05,28.05,0,0,1-1.175-3.986,12.465,12.465,0,0,1-.25-3.984,10.223,10.223,0,0,1,5.949-8.15,10.2,10.2,0,0,1,3.023-.832A10.214,10.214,0,0,1,493.316,376a11.217,11.217,0,0,1,.044,4.936,29.863,29.863,0,0,1-1.7,5.442,57.493,57.493,0,0,1-2.994,6.244q-1.283,2.324-2.665,4.593c-.786,1.295-1.633,2.552-2.455,3.825C483.511,401.106,483.461,401.161,483.39,401.252Zm-.036-29.474a6.638,6.638,0,1,0,6.635,6.783A6.649,6.649,0,0,0,483.354,371.778Z" transform="translate(-473.191 -368.252)"/></svg>