<svg xmlns="http://www.w3.org/2000/svg" width="283.503" height="119.034" viewBox="0 0 283.503 119.034"><defs><style>.a{fill:#ff5050;}.b{fill:#96f;}.c{fill:#7ae8c8;}.d{fill:#fcee21;}.e{fill:none;stroke:#000;stroke-linecap:round;stroke-miterlimit:10;stroke-width:2px;}</style></defs><g transform="translate(-33.957 -15.935)"><path class="a" d="M45.23,21.712a5.84,5.84,0,0,1,2.381,4.508,192.413,192.413,0,0,1,2,20.287q.448,10.112.451,22.863,0,5.41-.9,19.709,5.667.517,8.758.516,2.188,0,9.92-.645a56.368,56.368,0,0,1,7.856-.643,25.772,25.772,0,0,1,5.669.58,25.213,25.213,0,0,1,5.281,1.866,5.125,5.125,0,0,1,2.7,4.765,7.342,7.342,0,0,1-1.611,4.64,4.72,4.72,0,0,1-3.8,2.058,36.239,36.239,0,0,1-4.894-.513,79.082,79.082,0,0,0-11.594-.9q-1.8,0-4.057.19c-1.5.131-2.6.194-3.283.194a49.621,49.621,0,0,1-6.184.386,89.327,89.327,0,0,1-11.335-.645,11.19,11.19,0,0,1-5.153-2,5.751,5.751,0,0,1-2.576-5.089q0-1.932.516-9.918.9-13.265.9-20.223,0-5.41-.516-11.335t-.645-7.47a177.827,177.827,0,0,1-1.16-18.033q0-3.35,1.611-4.894t5.218-1.547A8.041,8.041,0,0,1,45.23,21.712Z" transform="translate(0 4.88)"/><path class="b" d="M120.894,95.722q-1.158-2.633-2.448-6.374-.257-.642-1.478-3.865a28.075,28.075,0,0,0-2.772-5.539,97.53,97.53,0,0,1-13.268,1.163q-2.833,0-6.247-.2t-5.086-.192q-6.446-.513-10.3-.516a25.457,25.457,0,0,0-2.642,4.381q-1.093,2.317-2.77,6.952a57.583,57.583,0,0,1-3.993,9.536Q68.727,103,65.377,103a11.259,11.259,0,0,1-5.218-1.225,3.751,3.751,0,0,1-2.381-3.413,59.655,59.655,0,0,1,3.285-10.371q2.254-5.473,6.5-14.616L72.72,60.752q4.252-10.82,7.794-18.549t9.338-18.29a6.579,6.579,0,0,1,2.576-2.64,7.561,7.561,0,0,1,3.993-1.1,13.931,13.931,0,0,1,3.542.321,3.72,3.72,0,0,1,1.739,1.031,20.009,20.009,0,0,1,1.933,2.9,101.4,101.4,0,0,1,7.537,14.038q3.156,7.216,8.052,19.966l2.7,6.829q3.6,9.273,6.247,15.522a80.2,80.2,0,0,0,5.863,11.4q2.057,3.35,2.06,4.64a5.857,5.857,0,0,1-1.87,4.7,7.125,7.125,0,0,1-4.83,1.611,6.627,6.627,0,0,1-5.665-2.578A23.216,23.216,0,0,1,120.894,95.722ZM104.537,54.183a105.606,105.606,0,0,0-7.988-18.419Q94.1,41.947,89.336,51.735A141,141,0,0,0,82,69.253,143.248,143.248,0,0,0,99.77,70.282a49.294,49.294,0,0,0,10.691-.9Q108.4,65.005,104.537,54.183Z" transform="translate(25.898 4.612)"/><path class="c" d="M204.7,42.593a5.754,5.754,0,0,1,5.857-.764,11.661,11.661,0,0,1,4.54,2.939,4,4,0,0,1,.816,4.433q-1.85,4.947-5.677,13.69-3.738,8.5-5.316,12.728-2.486,6.634-6.159,17.914-3.494,10.795-5.343,15.739-1.49,3.979-2.336,5.867a5.579,5.579,0,0,1-3.536,3.01q-2.811,1.08-7.153-.547a9.507,9.507,0,0,1-3.625-2.256,5.509,5.509,0,0,1-1.578-2.582q-3.1-9-7.762-29.59-5.272-23.021-9.332-35.682a210.763,210.763,0,0,1-6.988,21.592q-2.076,5.551-5.579,14.347t-4.9,11.438a10.816,10.816,0,0,1-4.122,4.579q-2.329,1.259-5.825-.052a5.149,5.149,0,0,1-3.356-2.976q-.7-1.982.457-5.811,1.731-4.994,6.159-14.612.708-1.522,2.4-5.293t2.816-6.783q3.115-8.325,6.293-19.377,3.7-12.091,5.825-17.762a5.588,5.588,0,0,1,3.782-3.673,8.524,8.524,0,0,1,5.475.261,13.125,13.125,0,0,1,4.613,3.1q5.5,16.916,13.562,49.368l4.834,21.619q.839-1.885,2.152-5.383,2.3-6.155,4.73-13.36t3.252-9.787Q197.444,57,200.79,48.076A11.982,11.982,0,0,1,204.7,42.593Z" transform="translate(101.217 7.436)"/><g transform="translate(149.129 15.935)"><g transform="translate(0)"><path d="M108.087,19.656a2.128,2.128,0,0,1,1.229,1.352,57.623,57.623,0,0,1,1.15,5.75,38.953,38.953,0,0,0,1.578,6.466,6.919,6.919,0,0,0,1.234,2.288,4.372,4.372,0,0,1-2.432-.351,2.953,2.953,0,0,1-1.279-1.451,32.266,32.266,0,0,1-1.246-4.35c-.528-2.254-.939-3.961-1.273-5.12-.282,1.3-.833,3.223-1.484,5.754s-.893,4-.966,4.41a2.894,2.894,0,0,1-.96.843c-.685.374-1.127.49-1.332.334-.353-.248-.912-.645-1.693-1.181s-1.432-.958-1.941-1.284a37.727,37.727,0,0,0-3.88-2.129c.04.094.561,1.346,1.63,3.734a38.046,38.046,0,0,0,2.912,5.47c.24.357.591.818,1.044,1.384-1.367.92-2.29,1.071-2.809.361-.071-.106-.948-1.8-2.5-5.18A56.439,56.439,0,0,0,91.6,29.877l-.058-.083a8.042,8.042,0,0,0-2.4-.28A2.786,2.786,0,0,1,90.28,28.05a3.746,3.746,0,0,1,3.6-.451,46.584,46.584,0,0,1,9.131,5.64,1.421,1.421,0,0,1,.179.117c.044-.244.173-.883.424-1.916s.463-1.83.6-2.386.326-1.334.58-2.346.451-1.862.561-2.546a14.511,14.511,0,0,0,.3-4.335A3.761,3.761,0,0,1,108.087,19.656Z" transform="translate(-89.138 -12.035)"/><path d="M105.147,24.508a8.313,8.313,0,0,0-.584,2.363A6.079,6.079,0,0,0,104.719,29a2.844,2.844,0,0,0,.929,1.517,1.735,1.735,0,0,0,1.582.336,3.544,3.544,0,0,0,2.173-1.772,9.917,9.917,0,0,0,1.277-3.385,10.236,10.236,0,0,0,.138-3.444,16.293,16.293,0,0,0-.549-2.5c.426-.094.691-.146.8-.163,1.528-.219,2.363.307,2.5,1.509.031.263-.065,1.352-.236,3.275a21.746,21.746,0,0,0-.013,4.567,6.473,6.473,0,0,0,1.092,2.9,3.389,3.389,0,0,1-2.231-.864,4.337,4.337,0,0,1-1.064-2.421c-.031-.192-.063-.566-.088-1.125a6.909,6.909,0,0,1-1.661,3.542,5.487,5.487,0,0,1-2.749,1.853,3.258,3.258,0,0,1-2.626-.363,4.2,4.2,0,0,1-1.73-2.471,7.938,7.938,0,0,1-.24-3.65,7.428,7.428,0,0,1,1.678-3.586,6.054,6.054,0,0,1,3.561-2.108,7.5,7.5,0,0,1,2.1-.094,7.5,7.5,0,0,0-2.624,1.67A6.856,6.856,0,0,0,105.147,24.508Z" transform="translate(-75.254 -12.025)"/><path d="M114.8,20.563a3.7,3.7,0,0,1,2.578-1.194,2.189,2.189,0,0,1,1.728.789,2.5,2.5,0,0,1,.449,1.762,2.689,2.689,0,0,1-.816,1.747,2.508,2.508,0,0,1-1.983.645,3.956,3.956,0,0,1-.632-.067,3.3,3.3,0,0,0,.966-2.048.667.667,0,0,0-.731-.785,2.027,2.027,0,0,0-1.307.526,5.9,5.9,0,0,0-1.317,1.549,8.685,8.685,0,0,0-1,2.613,14.088,14.088,0,0,0-.338,3.467c0,.142.05.731.144,1.774-.4.031-.624.054-.685.054-1.336.035-2.041-.513-2.114-1.707a31.261,31.261,0,0,1,.334-3.239,26.993,26.993,0,0,0,.332-4.475,9.463,9.463,0,0,0-.593-3.035,3.882,3.882,0,0,1,2.279,1.292,3.413,3.413,0,0,1,.653,2.058,11.343,11.343,0,0,1-.2,2.269A9.153,9.153,0,0,1,114.8,20.563Z" transform="translate(-66.739 -12.669)"/><path d="M121.3,25.039a4.645,4.645,0,0,1,3.314-.68,3.479,3.479,0,0,1,2.15,1.248,2.416,2.416,0,0,1,.307,2.141,3.447,3.447,0,0,1-1.465,1.991,5.637,5.637,0,0,1-2.707.889c.044.271.083.545.125.818a22.933,22.933,0,0,0,1.231,4.679,21.715,21.715,0,0,0,1.453,3.4,4.064,4.064,0,0,1-1.148-.14,2.672,2.672,0,0,1-.993-.538,5.575,5.575,0,0,1-.8-.8,4.765,4.765,0,0,1-.62-1.2c-.2-.526-.357-.962-.472-1.313s-.238-.877-.382-1.578c-.159-.728-.367-1.82-.666-3.277-.215-.025-.524-.077-.931-.146-.086-.086-.094-.313-.033-.683a6.072,6.072,0,0,0,2.041-.006,3.738,3.738,0,0,0,2.955-2.563,1.316,1.316,0,0,0-.113-.977,1.241,1.241,0,0,0-.872-.57,3.127,3.127,0,0,0-2.44.693,8.323,8.323,0,0,0-2.375,2.824,11.843,11.843,0,0,0-1.348,4.083,11.426,11.426,0,0,0-.148,1.962c-.365-.027-.572-.04-.618-.048a2.6,2.6,0,0,1-1.532-.614,1.594,1.594,0,0,1-.378-1.355,24.308,24.308,0,0,1,.774-3.348,89.073,89.073,0,0,0,2.861-11.53,5.509,5.509,0,0,0-.038-2.467,4.2,4.2,0,0,1,2.208,1.618,3.613,3.613,0,0,1,.3,2.438,39.753,39.753,0,0,1-1.234,4.239c-.693,2.146-1.154,3.709-1.419,4.684A7.74,7.74,0,0,1,121.3,25.039Z" transform="translate(-61.211 -15.935)"/><path d="M127.048,33.466a7.494,7.494,0,0,1-2.978-.568,4.163,4.163,0,0,1-2.313-2.267,5.391,5.391,0,0,1-.067-3.978,7,7,0,0,1,3.287-4.1,6.267,6.267,0,0,1,2.9-.741,7.911,7.911,0,0,1,3.415.7c2.546,1.123,3.325,2.688,2.409,4.477a3.284,3.284,0,0,1-2.839,1.785,8.492,8.492,0,0,1-4.049-.651,17.409,17.409,0,0,1-2.407-1.167,5.742,5.742,0,0,0-.244.6c-.824,2.323-.463,3.744,1.06,4.358a4.9,4.9,0,0,0,4.371-.315c.516.324.7.626.57.9A7.161,7.161,0,0,1,127.048,33.466Zm3.335-10.158a3.219,3.219,0,0,0-3.079.3,7.429,7.429,0,0,0-2.54,2.659c.223.081.447.163.67.246a8.818,8.818,0,0,0,2.3.57,4.258,4.258,0,0,0,1.741-.144,2.957,2.957,0,0,0,1.851-1.551,1.482,1.482,0,0,0,.075-1.181A1.739,1.739,0,0,0,130.383,23.308Z" transform="translate(-54.122 -9.545)"/><path d="M138.9,29.927a1.438,1.438,0,0,1-1.073.718,2.2,2.2,0,0,1-1.256-.476q-.817-.564-1.647-1.106c-.261.263-.891.881-1.883,1.866a26.364,26.364,0,0,0-3.863,4.494,6.907,6.907,0,0,0-1.115,2.407,3.573,3.573,0,0,1-.935-2.125,3.99,3.99,0,0,1,.591-2.156,14.289,14.289,0,0,1,1.369-1.993c.49-.591,1.1-1.265,1.826-2.012s1.3-1.355,1.711-1.824a12.043,12.043,0,0,0-2.966-.933,4.01,4.01,0,0,1,.244-.555,1.3,1.3,0,0,1,1.419-.753,6.7,6.7,0,0,1,2.381.993,21.344,21.344,0,0,0,1.369-1.868c.263-.432.474-.783.622-1.048s.269-.468.346-.6a3.361,3.361,0,0,1,1.319,1.826,2.476,2.476,0,0,1-.438,2,10.475,10.475,0,0,1-.956,1.194,8.027,8.027,0,0,0,3.206,1.482A3.092,3.092,0,0,1,138.9,29.927Z" transform="translate(-47.837 -8.3)"/></g></g><path class="d" d="M118.65,115.471a30.817,30.817,0,0,1-12.154-6.547A42.988,42.988,0,0,1,94.412,92.111Q90.968,83,90.968,68.818a17.511,17.511,0,0,1,.879-5.6,58.105,58.105,0,0,1,2.363-5.873q.4-.946,1.282-3.039a16.513,16.513,0,0,0,1.148-3.849q2.564-4.727,8.712-9.048a57.5,57.5,0,0,1,13.3-6.954,37.171,37.171,0,0,1,12.559-2.632q26.057,0,37.269,17.824,6.346,10.4,6.345,20.93,0,13.641-4.928,23.9a38.454,38.454,0,0,1-13.571,15.931,62.146,62.146,0,0,1-11.075,5.266,30.829,30.829,0,0,1-10.261,2.027A56.652,56.652,0,0,1,118.65,115.471ZM108.185,91.03A51.626,51.626,0,0,0,118.65,101.5q5.4,2.026,7.562,2.7a15.735,15.735,0,0,0,4.725.676,32.181,32.181,0,0,0,15.529-3.646,26.321,26.321,0,0,0,10.465-10,27.546,27.546,0,0,0,3.713-14.178q0-10.256-2.294-16.2a25.5,25.5,0,0,0-8.236-10.668,19.936,19.936,0,0,0-7.9-3.78,41.381,41.381,0,0,0-10.194-1.215q-12.964,0-20.052,9.115T105.013,78.81Q104.875,86.239,108.185,91.03Z" transform="translate(61.981 17.269)"/><path class="e" d="M105.5,58.64c4.2,5.5,13.537,5.418,20.872-.184" transform="translate(77.78 46.228)"/><circle cx="2.087" cy="2.087" r="2.087" transform="translate(182.236 84.947)"/><circle cx="2.087" cy="2.087" r="2.087" transform="translate(201.021 84.947)"/></g></svg>